<?xml version="1.0" encoding="utf-8"?>
<!-- Generator: Adobe Illustrator 24.0.3, SVG Export Plug-In . SVG Version: 6.00 Build 0)  -->
<svg version="1.1" id="Layer_1" xmlns="http://www.w3.org/2000/svg" xmlns:xlink="http://www.w3.org/1999/xlink" x="0px" y="0px"
	 viewBox="0 0 90 90" style="enable-background:new 0 0 90 90;" xml:space="preserve">
<style type="text/css">
	.st0{fill:#1D3557;}
	.st1{fill:#FFFFFF;}
	.st2{fill:#FF6B6B;}
</style>
<path class="st0" d="M82.8,7.2H7.9C7.5,7.2,7.2,7.6,7.2,8v44.3c0,0.4,0.3,0.8,0.8,0.8h47v3.1c0,0.4,0.3,0.8,0.8,0.8H58
	c0.4,0,0.8-0.3,0.8-0.8v-13v-0.1V43c0-4.8,4.3-8.7,9.9-9.7v25c0,5.5-5.6,9.9-12.6,9.9c-0.1,0-0.2,0-0.4,0c-0.4,0-0.8,0.3-0.8,0.7
	l0,0v2.3c0,0.4,0.3,0.8,0.7,0.8c0.1,0,0.3,0,0.4,0c1,0,2.1-0.1,3.1-0.2v6.9H38.7v-8.8c0-0.3-0.3-0.6-0.6-0.6l0,0
	c-7,0-12.6-4.4-12.6-9.9v-4.8c0-0.4-0.3-0.8-0.8-0.8h-2.3c-0.4,0-0.8,0.3-0.8,0.8v4.8c0,3.1,1.2,5.9,3.2,8.2
	c2.4,2.7,5.9,4.6,9.9,5.3v8.9c0,0.4,0.3,0.8,0.8,0.8H62c0.4,0,0.8-0.3,0.8-0.8v-11c2.2-0.9,4.2-2.1,5.7-3.7c2.4-2.4,3.8-5.5,3.8-8.8
	c0-0.5,0-0.5,0,0V53h10.3c0.4,0,0.8-0.3,0.8-0.8V8C83.6,7.6,83.2,7.2,82.8,7.2z"/>
<path class="st1" d="M49.2,39.7c-1.2,0-2.3-0.2-3.6-0.5c-0.7-0.2-1.3-0.4-1.7-0.5c-0.4-0.1-0.6-0.2-0.8-0.2c-0.1,0-0.2,0-0.3,0
	c-0.5,0-1.3,0.3-2.2,0.8c-0.5,0.3-1,0.4-1.5,0.4c-0.3,0-0.6-0.1-0.9-0.2c-0.8-0.3-1.5-0.9-1.8-1.7l-1.6-3.7
	c-0.5-1.2-0.2-2.6,0.8-3.4c-0.6-0.6-1-1.4-1-2.2v-3.1c0-1,0.5-1.9,1.2-2.4c0-0.2,0-0.4,0-0.6c0-1.7,0.4-3.1,1.4-4.6
	c1-1.4,2.1-2.4,3.7-3c1.2-0.5,2.9-0.8,4.9-0.8c1.8,0,3.3,0.2,4.6,0.7c1.3,0.4,2.5,1.4,3.5,2.7c0.9,1.2,1.5,2.5,1.8,4.1
	c0.1,0.8,0,1.6-0.5,2.3c-0.5,0.7-1.2,1.1-2,1.2l-1.4,0.2c0,0.1,0,0.2,0,0.3v3.1c0,0.1,0,0.1,0,0.2c0,0,0,0,0,0
	c1.2,0,2.2,0.7,2.7,1.7l1.8,3.8c0.3,0.7,0.4,1.6,0.1,2.3c-0.3,0.8-0.9,1.4-1.6,1.7c-1,0.5-1.8,0.8-2.5,1
	C51.2,39.7,50.1,39.7,49.2,39.7z"/>
<path class="st2" d="M44.8,25.5h3.9v3.1h-3.5c0,0.7-0.2,1.4-0.4,2c-0.2,0.4-0.5,0.9-0.9,1.4c0.5-0.1,0.9-0.2,1.2-0.2
	c0.4,0,1,0.1,1.7,0.3c1,0.2,1.7,0.3,2.3,0.3c0.5,0,0.9,0,1.2-0.1s0.8-0.3,1.4-0.5l1.8,3.8c-0.9,0.4-1.6,0.7-2.2,0.9
	s-1.3,0.2-2.1,0.2s-1.7-0.1-2.8-0.4c-1.4-0.4-2.2-0.6-2.5-0.7c-0.3-0.1-0.7-0.1-1.1-0.1c-1.1,0-2.3,0.4-3.7,1.2L37.5,33
	c1.8-1.3,2.7-2.6,2.7-3.9c0-0.1,0-0.3,0-0.6h-2.7v-3.1h1.9c-0.3-1.1-0.5-1.8-0.6-2c-0.1-0.3-0.1-0.6-0.1-1c0-1.1,0.3-2,0.9-2.9
	c0.6-0.9,1.3-1.5,2.3-1.9c0.9-0.4,2.2-0.6,3.8-0.6c1.5,0,2.7,0.2,3.5,0.5c0.9,0.3,1.6,0.9,2.2,1.7c0.6,0.8,1,1.7,1.2,2.8l-4.9,0.8
	c-0.2-0.9-0.5-1.5-0.9-1.8c-0.3-0.3-0.7-0.5-1.1-0.5c-0.5,0-0.9,0.2-1.2,0.5S44,21.8,44,22.4c0,0.3,0,0.6,0.1,0.9
	C44.2,23.7,44.4,24.4,44.8,25.5z"/>
</svg>
