<?xml version="1.0" encoding="utf-8"?>
<!-- Generator: Adobe Illustrator 24.0.3, SVG Export Plug-In . SVG Version: 6.00 Build 0)  -->
<svg version="1.1" id="Layer_1" xmlns="http://www.w3.org/2000/svg" xmlns:xlink="http://www.w3.org/1999/xlink" x="0px" y="0px"
	 viewBox="0 0 90 90" style="enable-background:new 0 0 90 90;" xml:space="preserve">
<style type="text/css">
	.st0{fill-rule:evenodd;clip-rule:evenodd;fill:#1D3557;}
	.st1{fill-rule:evenodd;clip-rule:evenodd;fill:#FF6B6B;}
</style>
<g>
	<path class="st0" d="M45.2,66.1c19.3,0,35.3-18.8,35.3-18.8c1.3-1.3,1.3-3.6,0-4.9c0,0-15.2-18.8-35.2-18.8S10.2,42.4,10.2,42.4
		C9,43.8,9,46,10.2,47.3C10.2,47.3,25.9,66.1,45.2,66.1L45.2,66.1z M45.4,59.8c8.3,0,15-6.7,15-15s-6.7-15-15-15s-15,6.7-15,15
		S37.1,59.8,45.4,59.8L45.4,59.8z"/>
</g>
<path class="st1" d="M45.4,51.5c3.7,0,6.7-3,6.7-6.7s-3-6.7-6.7-6.7s-6.7,3-6.7,6.7S41.7,51.5,45.4,51.5L45.4,51.5z"/>
</svg>
