<?xml version="1.0" encoding="utf-8"?>
<!-- Generator: Adobe Illustrator 24.0.3, SVG Export Plug-In . SVG Version: 6.00 Build 0)  -->
<svg version="1.1" id="Layer_1" xmlns="http://www.w3.org/2000/svg" xmlns:xlink="http://www.w3.org/1999/xlink" x="0px" y="0px"
	 viewBox="0 0 90 90" style="enable-background:new 0 0 90 90;" xml:space="preserve">
<path d="M80.1,66.4H69.5c-1.7,0-3,1.3-3,3V80c0,0.6,0.4,1,1,1c0.3,0,0.5-0.1,0.7-0.3l12.6-12.6c0.4-0.4,0.4-1,0-1.4
	C80.6,66.5,80.4,66.4,80.1,66.4z" fill="#ff6b6b"/>
<path d="M79.5,6.2H11.2c-2.2,0-4,1.8-4,4v69.2c0,2.2,1.8,4,4,4h47.3c1.1,0,2-0.9,2-2v-12c0-5,4-9,9-9h12c1.1,0,2-0.9,2-2V10.2
	C83.5,8,81.7,6.2,79.5,6.2z M50.4,56.7H21.1c-1.7,0-3-1.3-3-3s1.3-3,3-3h29.3c1.7,0,3,1.3,3,3S52.1,56.7,50.4,56.7L50.4,56.7z
	 M70.4,41.7H21.1c-1.7,0-3-1.3-3-3s1.3-3,3-3h49.3c1.7,0,3,1.3,3,3S72.1,41.7,70.4,41.7z M70.4,26.7H21.1c-1.7,0-3-1.3-3-3
	s1.3-3,3-3h49.3c1.7,0,3,1.3,3,3S72.1,26.7,70.4,26.7z" fill="#1d3557"/>
</svg>
